<svg aria-hidden="true" style="position: absolute; width: 0; height: 0; overflow: hidden;" version="1.1" xmlns="http://www.w3.org/2000/svg" xmlns:xlink="http://www.w3.org/1999/xlink">
<defs>
<symbol id="icon-footer" viewBox="0 0 32 32">
<path stroke-linejoin="miter" stroke-linecap="butt" stroke-miterlimit="4" stroke-width="0.4025" d="M7.617 16.959h7.416v14.832h-7.416c-4.096 0-7.416-3.32-7.416-7.416s3.32-7.416 7.416-7.416zM24.375 16.959c4.096 0 7.416 3.32 7.416 7.416s-3.32 7.416-7.416 7.416c-4.096 0-7.416-3.32-7.416-7.416s3.32-7.416 7.416-7.416zM7.617 0.201c4.096 0 7.416 3.32 7.416 7.416s-3.32 7.416-7.416 7.416c-4.096-0-7.416-3.32-7.416-7.416s3.32-7.416 7.416-7.416zM24.375 0.201c4.096 0 7.416 3.32 7.416 7.416s-3.32 7.416-7.416 7.416h-7.416v-14.832h7.416z"></path>
</symbol>
<symbol id="icon-phone" viewBox="0 0 32 32">
<path d="M27.875 0h-24.53c-0.887 0-1.738 0.358-2.365 0.994s-0.98 1.5-0.98 2.401v24.898c0 0.9 0.352 1.764 0.98 2.401s1.478 0.995 2.365 0.995h24.53c0.887 0 1.738-0.358 2.365-0.995s0.98-1.5 0.98-2.401v-24.898c0-0.9-0.352-1.764-0.98-2.401s-1.478-0.994-2.365-0.994zM26.733 21.741l-1.045 4.598c-0.053 0.234-0.183 0.442-0.368 0.592s-0.414 0.231-0.651 0.231c-11.15 0-20.209-9.175-20.209-20.512 0.008-0.238 0.091-0.466 0.237-0.652s0.347-0.32 0.573-0.381l4.53-1.061c0.077-0.017 0.156-0.026 0.235-0.028 0.202 0.010 0.398 0.075 0.567 0.189s0.305 0.27 0.394 0.454l2.091 4.951c0.051 0.133 0.080 0.275 0.084 0.418-0.017 0.314-0.155 0.609-0.383 0.821l-2.64 2.193c1.6 3.442 4.329 6.212 7.72 7.836l2.16-2.68c0.209-0.232 0.5-0.372 0.809-0.389 0.141 0.005 0.28 0.033 0.412 0.085l4.878 2.122c0.182 0.090 0.337 0.228 0.448 0.4s0.175 0.37 0.186 0.575c-0.001 0.080-0.011 0.16-0.027 0.238z"></path>
</symbol>
<symbol id="icon-email" viewBox="0 0 39 32">
<path d="M3.86 11.58v15.44h30.879v-15.44l-15.44 5.79-15.44-5.79zM3.86 3.86v3.86l15.44 5.79 15.44-5.79v-3.86h-30.879zM3.86 0h30.879c1.024 0 2.006 0.407 2.729 1.131s1.13 1.706 1.13 2.729v23.159c0 1.024-0.407 2.005-1.13 2.729s-1.706 1.13-2.729 1.13h-30.879c-1.024 0-2.005-0.407-2.729-1.13s-1.131-1.706-1.131-2.729v-23.159c0-1.024 0.407-2.005 1.131-2.729s1.706-1.131 2.729-1.131z"></path>
</symbol>
<symbol id="icon-location" viewBox="0 0 20 32">
<path d="M9.741 0c-5.381 0-9.741 4.342-9.741 9.721 0 9.3 9.741 21.429 9.741 21.429s9.741-12.131 9.741-21.429c0-5.377-4.36-9.721-9.741-9.721zM9.741 15.1c-1.395 0-2.733-0.554-3.719-1.541s-1.541-2.324-1.541-3.719c0-1.395 0.554-2.733 1.541-3.719s2.324-1.541 3.719-1.541c1.395 0 2.733 0.554 3.719 1.541s1.541 2.324 1.541 3.719c0 1.395-0.554 2.733-1.541 3.719s-2.324 1.541-3.719 1.541z"></path>
</symbol>
<symbol id="icon-office" viewBox="0 0 23 32">
<path d="M22.077 3.312c-0.001-0.878-0.35-1.72-0.971-2.341s-1.463-0.97-2.341-0.971h-15.454c-0.878 0.001-1.72 0.35-2.341 0.971s-0.97 1.463-0.971 2.341v24.284c0.001 0.878 0.35 1.72 0.971 2.341s1.463 0.97 2.341 0.971h15.454c0.878-0.001 1.72-0.35 2.341-0.971s0.97-1.463 0.971-2.341v-24.284zM4.967 27.596c-0.327 0-0.648-0.097-0.92-0.279s-0.485-0.441-0.61-0.743c-0.125-0.302-0.158-0.636-0.094-0.957s0.222-0.616 0.453-0.848c0.232-0.232 0.527-0.389 0.848-0.453s0.654-0.031 0.957 0.094c0.303 0.125 0.561 0.338 0.743 0.61s0.279 0.592 0.279 0.92c0 0.439-0.174 0.86-0.485 1.171s-0.732 0.485-1.171 0.485zM4.967 22.077c-0.327 0-0.648-0.097-0.92-0.279s-0.485-0.441-0.61-0.743c-0.125-0.303-0.158-0.636-0.094-0.957s0.222-0.616 0.453-0.848c0.232-0.232 0.527-0.389 0.848-0.453s0.654-0.031 0.957 0.094c0.303 0.125 0.561 0.338 0.743 0.61s0.279 0.592 0.279 0.92c0 0.439-0.174 0.86-0.485 1.171s-0.732 0.485-1.171 0.485zM4.967 16.558c-0.327 0-0.648-0.097-0.92-0.279s-0.485-0.441-0.61-0.743c-0.125-0.303-0.158-0.636-0.094-0.957s0.222-0.616 0.453-0.848c0.232-0.232 0.527-0.389 0.848-0.453s0.654-0.031 0.957 0.094c0.303 0.125 0.561 0.338 0.743 0.61s0.279 0.592 0.279 0.92c0 0.439-0.174 0.86-0.485 1.171s-0.732 0.485-1.171 0.485zM11.038 27.596c-0.327 0-0.648-0.097-0.92-0.279s-0.485-0.441-0.61-0.743c-0.125-0.302-0.158-0.636-0.094-0.957s0.222-0.616 0.453-0.848c0.232-0.232 0.527-0.389 0.848-0.453s0.654-0.031 0.957 0.094c0.303 0.125 0.561 0.338 0.743 0.61s0.279 0.592 0.279 0.92c0 0.439-0.174 0.86-0.485 1.171s-0.732 0.485-1.171 0.485zM11.038 22.077c-0.327 0-0.648-0.097-0.92-0.279s-0.485-0.441-0.61-0.743c-0.125-0.303-0.158-0.636-0.094-0.957s0.222-0.616 0.453-0.848c0.232-0.232 0.527-0.389 0.848-0.453s0.654-0.031 0.957 0.094c0.303 0.125 0.561 0.338 0.743 0.61s0.279 0.592 0.279 0.92c0 0.439-0.174 0.86-0.485 1.171s-0.732 0.485-1.171 0.485zM11.038 16.558c-0.327 0-0.648-0.097-0.92-0.279s-0.485-0.441-0.61-0.743c-0.125-0.303-0.158-0.636-0.094-0.957s0.222-0.616 0.453-0.848c0.232-0.232 0.527-0.389 0.848-0.453s0.654-0.031 0.957 0.094c0.303 0.125 0.561 0.338 0.743 0.61s0.279 0.592 0.279 0.92c0 0.439-0.174 0.86-0.485 1.171s-0.732 0.485-1.171 0.485zM18.765 25.94c0 0.439-0.174 0.86-0.485 1.171s-0.732 0.485-1.171 0.485c-0.439 0-0.86-0.174-1.171-0.485s-0.485-0.732-0.485-1.171v-5.519c0-0.439 0.174-0.86 0.485-1.171s0.732-0.485 1.171-0.485c0.439 0 0.86 0.174 1.171 0.485s0.485 0.732 0.485 1.171v5.519zM17.11 16.558c-0.328 0-0.648-0.097-0.92-0.279s-0.485-0.441-0.61-0.743c-0.125-0.303-0.158-0.636-0.094-0.957s0.222-0.616 0.453-0.848c0.232-0.232 0.527-0.389 0.848-0.453s0.654-0.031 0.957 0.094c0.302 0.125 0.561 0.338 0.743 0.61s0.279 0.592 0.279 0.92c0 0.439-0.174 0.86-0.485 1.171s-0.732 0.485-1.171 0.485zM18.442 9.611c-0.207 0.207-0.488 0.323-0.78 0.324h-13.246c-0.293 0-0.574-0.116-0.781-0.323s-0.323-0.488-0.323-0.781v-4.415c0-0.293 0.116-0.574 0.323-0.781s0.488-0.323 0.781-0.323h13.246c0.293 0 0.573 0.116 0.781 0.323s0.323 0.488 0.323 0.781v4.415c-0 0.293-0.117 0.573-0.324 0.78z"></path>
</symbol>
</defs>
</svg>
